<?xml version="1.0" encoding="UTF-8" standalone="no"?>
<!-- Generated by IcoMoon.io -->

<svg
   version="1.1"
   width="1024"
   height="1024"
   viewBox="0 0 1024 1024"
   id="svg2"
   sodipodi:docname="btn-arrow-left-uncolor-stroke.svg"
   inkscape:version="1.3.2 (091e20e, 2023-11-25, custom)"
   xmlns:inkscape="http://www.inkscape.org/namespaces/inkscape"
   xmlns:sodipodi="http://sodipodi.sourceforge.net/DTD/sodipodi-0.dtd"
   xmlns="http://www.w3.org/2000/svg"
   xmlns:svg="http://www.w3.org/2000/svg">
  <defs
     id="defs2" />
  <sodipodi:namedview
     id="namedview2"
     pagecolor="#ffffff"
     bordercolor="#000000"
     borderopacity="0.25"
     inkscape:showpageshadow="2"
     inkscape:pageopacity="0.0"
     inkscape:pagecheckerboard="0"
     inkscape:deskcolor="#d1d1d1"
     inkscape:zoom="0.80175781"
     inkscape:cx="511.37637"
     inkscape:cy="512"
     inkscape:window-width="1920"
     inkscape:window-height="1017"
     inkscape:window-x="1912"
     inkscape:window-y="-8"
     inkscape:window-maximized="1"
     inkscape:current-layer="svg2" />
  <title
     id="title1" />
  <g
     id="icomoon-ignore" />
  <path
     style="color:#000000;fill:#000000;-inkscape-stroke:none"
     d="m 582.68945,289.3418 -11.05078,10.89257 201.0957,204.00782 H 232.72656 v 15.51562 H 772.73437 L 571.63867,723.76562 582.68945,734.6582 802.16602,512 Z"
     id="path1" />
  <path
     style="color:#000000;fill:#000000;-inkscape-stroke:none"
     d="M 512,0 C 229.32276,0 0,229.32276 0,512 c 0,282.67724 229.32276,512 512,512 282.67724,0 512,-229.32276 512,-512 C 1024,229.32276 794.67724,0 512,0 Z m 0,15.515625 c 274.2922,0 496.4844,222.192175 496.4844,496.484375 0,274.2922 -222.1922,496.4844 -496.4844,496.4844 C 237.7078,1008.4844 15.515625,786.2922 15.515625,512 15.515625,237.7078 237.7078,15.515625 512,15.515625 Z"
     id="path2" />
</svg>
