<?xml version="1.0" encoding="UTF-8" standalone="no"?>
<svg
   width="24"
   height="24"
   viewBox="0 0 24 24"
   fill="none"
   version="1.1"
   id="svg2"
   sodipodi:docname="close-cross-stroke.svg"
   inkscape:version="1.3.2 (091e20e, 2023-11-25, custom)"
   xmlns:inkscape="http://www.inkscape.org/namespaces/inkscape"
   xmlns:sodipodi="http://sodipodi.sourceforge.net/DTD/sodipodi-0.dtd"
   xmlns="http://www.w3.org/2000/svg"
   xmlns:svg="http://www.w3.org/2000/svg">
  <defs
     id="defs2" />
  <sodipodi:namedview
     id="namedview2"
     pagecolor="#ffffff"
     bordercolor="#000000"
     borderopacity="0.25"
     inkscape:showpageshadow="2"
     inkscape:pageopacity="0.0"
     inkscape:pagecheckerboard="0"
     inkscape:deskcolor="#d1d1d1"
     inkscape:zoom="34.208333"
     inkscape:cx="11.985384"
     inkscape:cy="12"
     inkscape:window-width="1920"
     inkscape:window-height="1017"
     inkscape:window-x="1912"
     inkscape:window-y="-8"
     inkscape:window-maximized="1"
     inkscape:current-layer="svg2" />
  <path
     style="color:#000000;fill:#000000;stroke-linecap:round;-inkscape-stroke:none"
     d="m 2,1 a 1,1 0 0 0 -0.7070313,0.2929687 1,1 0 0 0 0,1.4140626 L 21.292969,22.707031 a 1,1 0 0 0 1.414062,0 1,1 0 0 0 0,-1.414062 L 2.7070313,1.2929687 A 1,1 0 0 0 2,1 Z"
     id="path1" />
  <path
     style="color:#000000;fill:#000000;stroke-linecap:round;-inkscape-stroke:none"
     d="M 21.964844,1.8339844 A 1,1 0 0 0 21.255859,2.1269531 L 2.1269531,21.255859 a 1,1 0 0 0 0,1.414063 1,1 0 0 0 1.4140625,0 L 22.671875,3.5410156 a 1,1 0 0 0 0,-1.4140625 1,1 0 0 0 -0.707031,-0.2929687 z"
     id="path2" />
</svg>
