<?xml version="1.0" encoding="UTF-8" standalone="no"?>
<svg
   width="44"
   height="40"
   viewBox="0 0 44 40"
   fill="none"
   version="1.1"
   id="svg3"
   sodipodi:docname="email-stroke.svg"
   inkscape:version="1.3.2 (091e20e, 2023-11-25, custom)"
   xmlns:inkscape="http://www.inkscape.org/namespaces/inkscape"
   xmlns:sodipodi="http://sodipodi.sourceforge.net/DTD/sodipodi-0.dtd"
   xmlns="http://www.w3.org/2000/svg"
   xmlns:svg="http://www.w3.org/2000/svg">
  <sodipodi:namedview
     id="namedview3"
     pagecolor="#ffffff"
     bordercolor="#000000"
     borderopacity="0.25"
     inkscape:showpageshadow="2"
     inkscape:pageopacity="0.0"
     inkscape:pagecheckerboard="0"
     inkscape:deskcolor="#d1d1d1"
     inkscape:zoom="20.525"
     inkscape:cx="22.021924"
     inkscape:cy="20"
     inkscape:window-width="1920"
     inkscape:window-height="1017"
     inkscape:window-x="1912"
     inkscape:window-y="-8"
     inkscape:window-maximized="1"
     inkscape:current-layer="g2" />
  <g
     clip-path="url(#clip0_1_1238)"
     id="g2">
    <g
       clip-path="url(#clip1_1_1238)"
       id="g1">
      <path
         style="color:#000000;fill:#000000;-inkscape-stroke:none"
         d="m 5.5429687,5.1757812 c -2.1987005,0 -4,1.8012995 -4,4.0000001 V 33.175781 c 0,2.198701 1.8012995,4 4,4 H 37.542969 c 2.1987,0 4,-1.801299 4,-4 V 9.1757813 c 0,-2.1987006 -1.8013,-4.0000001 -4,-4.0000001 z m 0,2 H 37.542969 c 1.125296,0 2,0.8747039 2,2.0000001 V 33.175781 c 0,1.125296 -0.874704,2 -2,2 H 5.5429687 c -1.1252961,0 -1.9999999,-0.874704 -1.9999999,-2 V 9.1757813 c 0,-1.1252962 0.8747038,-2.0000001 1.9999999,-2.0000001 z"
         id="rect1" />
      <path
         style="color:#000000;fill:#000000;-inkscape-stroke:none"
         d="M 6.2832031,5.25 C 4.3474852,5.25 2.8966799,6.5749878 2.4433594,8.1308594 1.9900388,9.6867309 2.5019767,11.583347 4.1347656,12.623047 L 19.851562,22.632812 c 1.308752,0.833363 2.988124,0.833363 4.296875,0 L 39.865234,12.623047 C 41.498007,11.583341 42.00997,9.6867226 41.556641,8.1308594 41.103311,6.5749962 39.65249,5.25 37.716797,5.25 Z m 0,2 H 37.716797 c 1.065104,0 1.684952,0.6349718 1.919922,1.4414063 0.234969,0.8064344 0.05272,1.6740017 -0.845703,2.2460937 L 23.074219,20.945312 c -0.657447,0.418637 -1.490991,0.418637 -2.148438,0 L 5.2089844,10.9375 C 4.3105358,10.365401 4.12832,9.4978323 4.3632812,8.6914063 4.5982425,7.8849802 5.2180541,7.25 6.2832031,7.25 Z"
         id="path1" />
    </g>
  </g>
  <defs
     id="defs3">
    <clipPath
       id="clip0_1_1238">
      <rect
         width="44"
         height="40"
         fill="white"
         id="rect2" />
    </clipPath>
    <clipPath
       id="clip1_1_1238">
      <rect
         width="64"
         height="39"
         fill="white"
         transform="translate(-15 1)"
         id="rect3" />
    </clipPath>
  </defs>
</svg>
