<?xml version="1.0" standalone="no"?>
<!DOCTYPE svg PUBLIC "-//W3C//DTD SVG 20010904//EN"
 "http://www.w3.org/TR/2001/REC-SVG-20010904/DTD/svg10.dtd">
<svg version="1.0" xmlns="http://www.w3.org/2000/svg"
 width="224.000000pt" height="226.000000pt" viewBox="0 0 224.000000 226.000000"
 preserveAspectRatio="xMidYMid meet">
<metadata>
Created by potrace 1.16, written by Peter Selinger 2001-2019
</metadata>
<g transform="translate(0.000000,226.000000) scale(0.100000,-0.100000)"
fill="#000000" stroke="none">
<path d="M401 2085 c-79 -25 -167 -79 -174 -106 -2 -9 0 -24 5 -33 10 -18 53
-22 63 -6 9 15 81 52 140 72 113 38 324 17 420 -42 85 -53 142 -164 152 -299
6 -70 5 -73 -13 -63 -10 5 -36 12 -56 16 -32 6 -38 11 -38 31 0 41 -31 104
-63 129 -24 19 -31 32 -31 63 -1 34 -4 38 -28 41 -20 2 -31 -3 -44 -25 -101
-165 -224 -283 -375 -358 l-71 -36 4 -67 c5 -87 35 -148 98 -205 50 -45 50
-45 50 -106 l0 -61 -90 0 c-104 0 -90 -18 -115 150 -50 340 -57 500 -28 613
19 74 14 87 -34 87 -72 0 -80 -324 -16 -715 8 -49 17 -100 20 -112 4 -19 1
-23 -18 -23 -37 0 -105 -38 -133 -75 l-26 -34 0 -343 0 -344 40 -39 c38 -37
45 -40 110 -43 57 -4 76 -1 105 17 35 21 46 21 484 21 374 0 450 2 460 14 9
10 11 105 9 353 -3 333 -3 339 -26 375 l-23 37 43 58 c24 32 45 60 48 63 3 3
13 17 23 33 l17 27 170 0 c185 0 196 -4 139 -50 -56 -46 -50 -147 10 -183 89
-52 193 31 161 128 -6 19 -22 43 -36 54 -13 10 -24 26 -24 35 0 14 25 16 220
16 207 0 221 1 240 20 19 19 20 33 20 370 l0 350 25 10 c24 9 25 13 25 89 0
63 -3 80 -16 85 -9 3 -264 6 -568 6 -640 0 -589 9 -584 -101 3 -58 5 -65 31
-77 l27 -13 0 -347 c0 -191 4 -352 8 -358 4 -5 17 -17 29 -25 l22 -15 -36 -44
c-19 -25 -41 -53 -48 -63 -10 -14 -20 -16 -53 -11 -23 4 -40 10 -37 14 2 3 16
90 32 191 22 151 27 219 28 379 l0 195 -33 70 c-76 160 -221 235 -452 234 -93
0 -129 -4 -189 -24z m1779 -100 c0 -13 -64 -15 -515 -15 -451 0 -515 2 -515
15 0 13 64 15 515 15 451 0 515 -2 515 -15z m-70 -425 l0 -330 -375 0 c-206 0
-375 2 -375 4 0 2 14 20 30 41 32 40 37 64 18 83 -23 23 -47 11 -93 -45 -25
-32 -50 -64 -55 -70 -6 -7 -20 -13 -30 -13 -19 0 -20 9 -20 330 l0 330 450 0
450 0 0 -330z m-1304 135 c13 -19 15 -52 12 -187 -3 -162 -3 -163 -33 -208
-39 -59 -117 -100 -189 -100 -91 1 -170 52 -207 134 -26 58 -24 84 6 96 27 10
130 74 151 93 7 7 33 29 58 51 25 21 69 67 97 102 56 68 71 71 105 19z m170
-382 c-7 -73 -31 -227 -42 -265 -5 -15 -18 -18 -90 -18 l-84 0 0 70 c0 39 4
70 9 70 5 0 26 18 48 39 39 39 66 89 77 143 5 22 12 27 44 31 20 2 39 4 41 5
2 1 0 -33 -3 -75z m-296 -235 l0 -48 -80 0 -80 0 0 48 0 48 80 0 80 0 0 -48z
m-335 -160 c11 -17 37 -45 58 -62 32 -25 47 -30 92 -30 46 0 59 4 83 27 l28
27 22 -24 c56 -65 172 -32 237 67 16 26 22 27 97 27 l79 0 -53 -69 c-46 -59
-56 -67 -72 -59 -33 18 -99 3 -159 -36 -32 -20 -59 -36 -61 -36 -2 0 -98 -54
-213 -120 l-208 -120 -5 50 c-7 59 -19 75 -55 66 l-26 -7 3 -106 c2 -84 6
-108 19 -116 13 -8 48 8 160 73 257 148 278 160 283 160 6 0 56 -87 56 -97 0
-4 -18 -18 -40 -31 -48 -27 -55 -65 -17 -83 20 -9 39 -2 138 56 217 128 225
136 217 234 -5 54 -4 57 46 123 34 45 54 64 61 57 6 -6 11 -128 13 -314 l3
-305 -61 0 -60 0 0 99 c0 107 -8 125 -52 119 -22 -3 -23 -7 -26 -110 l-3 -108
-246 0 -247 0 65 39 c54 33 64 43 67 70 6 54 -37 42 -212 -59 -175 -101 -211
-110 -263 -66 l-28 24 0 295 c0 284 1 297 21 324 32 43 61 53 154 52 84 0 85
0 105 -31z m563 -184 c27 -19 29 -65 5 -86 -23 -19 -125 -80 -127 -76 -17 24
-57 100 -54 103 15 15 125 75 138 75 8 0 26 -7 38 -16z"/>
<path d="M497 1383 c-19 -18 -5 -53 29 -73 66 -41 174 -12 174 47 0 31 -23 39
-72 22 -31 -10 -44 -10 -59 -1 -20 13 -62 16 -72 5z"/>
</g>
</svg>
