<?xml version="1.0" encoding="UTF-8" standalone="no"?>
<svg
   width="27"
   height="26"
   viewBox="0 0 27 26"
   fill="none"
   version="1.1"
   id="svg2"
   sodipodi:docname="Instagram-stroke.svg"
   inkscape:version="1.3.2 (091e20e, 2023-11-25, custom)"
   xmlns:inkscape="http://www.inkscape.org/namespaces/inkscape"
   xmlns:sodipodi="http://sodipodi.sourceforge.net/DTD/sodipodi-0.dtd"
   xmlns="http://www.w3.org/2000/svg"
   xmlns:svg="http://www.w3.org/2000/svg">
  <defs
     id="defs2" />
  <sodipodi:namedview
     id="namedview2"
     pagecolor="#ffffff"
     bordercolor="#000000"
     borderopacity="0.25"
     inkscape:showpageshadow="2"
     inkscape:pageopacity="0.0"
     inkscape:pagecheckerboard="0"
     inkscape:deskcolor="#d1d1d1"
     inkscape:zoom="31.576923"
     inkscape:cx="13.490865"
     inkscape:cy="13"
     inkscape:window-width="1920"
     inkscape:window-height="1017"
     inkscape:window-x="1912"
     inkscape:window-y="-8"
     inkscape:window-maximized="1"
     inkscape:current-layer="svg2" />
  <path
     style="color:#000000;fill:#000000;-inkscape-stroke:none"
     d="m 7.5,0 c -3.8606989,0 -7,3.1393011 -7,7 v 12 c 0,3.860699 3.1393011,7 7,7 h 12 c 3.860699,0 7,-3.139301 7,-7 V 7 c 0,-3.8606989 -3.139301,-7 -7,-7 z m 0,2 h 12 c 2.787294,0 5,2.2127056 5,5 v 12 c 0,2.787294 -2.212706,5 -5,5 h -12 c -2.7872944,0 -5,-2.212706 -5,-5 V 7 c 0,-2.7872944 2.2127056,-5 5,-5 z"
     id="rect1" />
  <path
     style="color:#000000;fill:#000000;-inkscape-stroke:none"
     d="m 13.5,5.5117187 c -4.1235491,0 -7.4882813,3.3647322 -7.4882813,7.4882813 0,4.123549 3.3647322,7.486328 7.4882813,7.486328 4.123549,0 7.486328,-3.362779 7.486328,-7.486328 0,-4.1235491 -3.362779,-7.4882812 -7.486328,-7.4882813 z m 0,2 c 3.04267,0 5.486328,2.4456114 5.486328,5.4882813 0,3.04267 -2.443658,5.486328 -5.486328,5.486328 C 10.45733,18.486328 8.0117188,16.04267 8.0117188,13 8.0117188,9.9573301 10.45733,7.5117188 13.5,7.5117187 Z"
     id="circle1" />
  <path
     style="color:#000000;fill:#000000;-inkscape-stroke:none"
     d="m 20.744141,3.2695313 c -1.335188,-1e-7 -2.439454,1.1023123 -2.439454,2.4374999 0,1.3351877 1.104266,2.4394532 2.439454,2.4394532 1.335187,0 2.439453,-1.1042655 2.439453,-2.4394532 0,-1.3351876 -1.104266,-2.4374999 -2.439453,-2.4374999 z m 0,1.9999999 c 0.254308,0 0.439453,0.1831916 0.439453,0.4375 0,0.2543085 -0.185145,0.4394532 -0.439453,0.4394532 -0.254309,0 -0.439454,-0.1851447 -0.439454,-0.4394532 0,-0.2543084 0.185145,-0.4374999 0.439454,-0.4375 z"
     id="circle2" />
</svg>
