<?xml version="1.0" encoding="UTF-8" standalone="no"?>
<svg
   width="40"
   height="40"
   viewBox="0 0 40 40"
   fill="none"
   version="1.1"
   id="svg1"
   sodipodi:docname="phone-stroke.svg"
   inkscape:version="1.3.2 (091e20e, 2023-11-25, custom)"
   xmlns:inkscape="http://www.inkscape.org/namespaces/inkscape"
   xmlns:sodipodi="http://sodipodi.sourceforge.net/DTD/sodipodi-0.dtd"
   xmlns="http://www.w3.org/2000/svg"
   xmlns:svg="http://www.w3.org/2000/svg">
  <defs
     id="defs1" />
  <sodipodi:namedview
     id="namedview1"
     pagecolor="#ffffff"
     bordercolor="#000000"
     borderopacity="0.25"
     inkscape:showpageshadow="2"
     inkscape:pageopacity="0.0"
     inkscape:pagecheckerboard="0"
     inkscape:deskcolor="#d1d1d1"
     inkscape:zoom="20.525"
     inkscape:cx="19.975639"
     inkscape:cy="20"
     inkscape:window-width="1920"
     inkscape:window-height="1017"
     inkscape:window-x="1912"
     inkscape:window-y="-8"
     inkscape:window-maximized="1"
     inkscape:current-layer="svg1" />
  <path
     style="color:#000000;fill:#000000;-inkscape-stroke:none"
     d="M 9.9628906,3.0019531 C 9.3282598,2.9754202 8.5475748,3.1902872 7.9785156,3.7832031 7.6415062,4.1343411 6.8434457,4.8295264 6.0527344,5.5664062 5.262023,6.3032861 4.4660494,7.0629402 3.9707031,7.8828125 3.4262109,8.7840372 3.1122833,9.491166 3.0273438,10.267578 c -0.08494,0.776412 0.034415,1.477785 0.1621093,2.554688 0.3462945,2.920387 1.5192112,5.335599 3.078125,8.265625 1.7209775,3.23465 6.4991119,8.290681 11.4042969,11.800781 C 22.611863,36.42378 26.448917,37 27.808594,37 c 1.155466,0 3.1217,-0.280789 5.296875,-2.138672 1.399805,-1.19552 2.442893,-2.218155 2.966797,-2.763672 0.07527,-0.07835 0.270496,-0.225336 0.490234,-0.517578 0.315109,-0.419231 0.519246,-1.054992 0.402344,-1.746094 -0.116903,-0.691101 -0.518616,-1.385895 -1.226563,-2.080078 -1.309164,-1.283831 -3.670588,-3.820134 -4.882812,-5.140625 -0.203696,-0.221805 -0.47608,-0.487781 -0.878907,-0.673828 -0.387181,-0.178762 -0.880226,-0.333967 -1.458984,-0.335937 -0.578758,-0.002 -1.260888,0.183318 -1.816406,0.664062 -0.554422,0.479628 -1.294943,1.231161 -1.992188,1.958984 -0.572891,0.598062 -1.351726,0.779355 -1.980468,0.4375 -2.257627,-1.22743 -5.480778,-3.65421 -7.796875,-7.396484 -0.423412,-0.684144 -0.260877,-1.57437 0.376953,-2.175781 l 1.80664,-1.703125 0.03906,-0.04883 c 0.303481,-0.368504 0.648283,-0.892635 0.851562,-1.564453 0.20328,-0.671818 0.223482,-1.650767 -0.447265,-2.3554691 C 16.825721,8.6498518 13.79967,5.592295 12.185547,3.9648438 12.024564,3.8025318 11.81547,3.6103253 11.525391,3.453125 11.122704,3.234939 10.597521,3.0284861 9.9628906,3.0019531 Z M 9.8789063,5 c 0.2107707,0.00881 0.5002467,0.1063038 0.6933597,0.2109375 0.03052,0.01654 0.09754,0.065502 0.193359,0.1621094 1.612074,1.6253855 4.688024,4.7367731 5.34375,5.4257811 0.05225,0.0549 0.07284,0.09961 -0.01758,0.398438 -0.0882,0.291479 -0.319707,0.663882 -0.46875,0.849609 L 13.9375,13.636719 c -1.264168,1.191987 -1.659418,3.14474 -0.707031,4.683593 2.547098,4.115518 6.0206,6.730196 8.542968,8.101563 1.498856,0.814945 3.2766,0.338237 4.378907,-0.8125 0.679954,-0.709775 1.427445,-1.458107 1.857422,-1.830078 h 0.002 c 0.164381,-0.142256 0.298231,-0.176461 0.498047,-0.175781 0.199815,6.8e-4 0.447535,0.06951 0.626953,0.152343 0.03497,0.01615 0.12359,0.07754 0.246093,0.210938 1.224174,1.333506 3.566645,3.853277 4.955079,5.214844 0.500752,0.491016 0.627524,0.828055 0.654296,0.986328 0.02677,0.158272 -0.01121,0.186869 -0.0293,0.210937 -0.0178,0.02336 -0.13468,0.12659 -0.332032,0.332031 -0.468077,0.487427 -1.47952,1.480451 -2.824218,2.628907 C 29.97962,34.900358 28.718925,35 27.808594,35 27.102673,35 23.44974,34.563404 18.835937,31.261719 14.187332,27.935225 9.4107425,22.737581 8.0332031,20.148437 6.49358,17.254669 5.4750262,15.111498 5.1757812,12.587891 5.0452658,11.487196 4.9694541,10.890512 5.0136719,10.486328 5.0578897,10.082144 5.195447,9.7259323 5.6835937,8.9179688 5.9343967,8.5028523 6.6632485,7.7308156 7.4160156,7.0292969 8.1687827,6.3277781 8.9326152,5.6777399 9.421875,5.1679687 9.5724651,5.0110654 9.6681355,4.991188 9.8789063,5 Z"
     id="path1" />
</svg>
