<?xml version="1.0" standalone="no"?>
<!DOCTYPE svg PUBLIC "-//W3C//DTD SVG 20010904//EN"
 "http://www.w3.org/TR/2001/REC-SVG-20010904/DTD/svg10.dtd">
<svg version="1.0" xmlns="http://www.w3.org/2000/svg"
 width="206.000000pt" height="206.000000pt" viewBox="0 0 206.000000 206.000000"
 preserveAspectRatio="xMidYMid meet">

<g transform="translate(0.000000,206.000000) scale(0.100000,-0.100000)"
fill="#000000" stroke="none">
<path d="M432 1962 c-32 -30 -40 -51 -44 -117 l-3 -40 -110 -5 c-94 -4 -115
-8 -143 -28 -65 -47 -62 -11 -62 -772 0 -766 -4 -723 67 -777 l36 -28 485 0
c442 0 486 1 495 17 8 12 7 21 -2 32 -12 14 -67 16 -488 16 l-475 0 -29 29
-29 29 0 516 0 516 900 0 900 0 2 -281 c3 -259 4 -283 21 -293 15 -9 21 -7 33
9 13 17 14 84 12 460 -3 488 -2 478 -70 527 -29 20 -47 23 -145 26 l-113 4 0
49 c0 90 -44 139 -125 139 -80 0 -116 -37 -125 -130 l-5 -55 -127 -3 -128 -3
0 46 c0 88 -51 145 -130 145 -79 0 -130 -57 -130 -145 l0 -45 -130 0 -130 0 0
50 c0 93 -43 140 -129 140 -40 0 -54 -5 -79 -28z m128 -52 c18 -18 20 -33 20
-140 0 -107 -2 -122 -20 -140 -11 -11 -31 -20 -45 -20 -14 0 -34 9 -45 20 -18
18 -20 33 -20 140 0 107 2 122 20 140 11 11 31 20 45 20 14 0 34 -9 45 -20z
m516 -1 c16 -18 19 -37 19 -139 0 -102 -3 -121 -19 -139 -23 -25 -53 -27 -84
-5 -21 14 -22 22 -22 141 0 104 3 130 17 145 22 24 66 23 89 -3z m514 1 c18
-18 20 -33 20 -140 0 -107 -2 -122 -20 -140 -11 -11 -31 -20 -45 -20 -14 0
-34 9 -45 20 -18 18 -20 33 -20 140 0 107 2 122 20 140 11 11 31 20 45 20 14
0 34 -9 45 -20z m-1200 -220 c0 -62 21 -105 60 -125 58 -30 145 -11 172 38 7
12 15 47 18 77 l5 55 127 3 128 3 0 -46 c0 -88 51 -145 130 -145 79 0 130 57
130 145 l0 45 130 0 130 0 0 -50 c0 -62 21 -105 60 -125 58 -30 145 -11 172
38 7 12 15 47 18 77 l5 55 80 3 c98 4 120 -2 151 -35 23 -25 24 -32 24 -154
l0 -129 -900 0 -900 0 0 128 c1 175 14 191 168 192 l92 0 0 -50z"/>
<path d="M345 1176 c-27 -20 -35 -145 -11 -181 16 -24 21 -25 116 -25 121 0
130 7 130 112 0 97 -13 108 -128 108 -60 0 -94 -5 -107 -14z m173 -98 l3 -48
-65 0 -66 0 0 50 0 51 63 -3 62 -3 3 -47z"/>
<path d="M732 1174 c-20 -13 -22 -24 -22 -93 0 -105 7 -111 132 -111 115 0
121 5 126 99 3 56 1 70 -18 94 -20 26 -25 27 -109 27 -62 0 -93 -4 -109 -16z
m168 -94 l0 -50 -65 0 -65 0 0 50 0 50 65 0 65 0 0 -50z"/>
<path d="M1117 1172 c-13 -14 -17 -38 -17 -95 0 -102 6 -107 124 -107 118 0
126 7 126 108 0 102 -12 112 -128 112 -73 0 -92 -3 -105 -18z m171 -94 l3 -48
-65 0 -66 0 0 50 0 51 63 -3 62 -3 3 -47z"/>
<path d="M1500 1170 c-16 -16 -20 -33 -20 -88 0 -104 9 -112 130 -112 121 0
130 8 130 112 0 97 -13 108 -130 108 -77 0 -93 -3 -110 -20z m170 -90 l0 -50
-65 0 -65 0 0 43 c0 24 3 47 7 50 3 4 33 7 65 7 l58 0 0 -50z"/>
<path d="M340 880 c-16 -16 -20 -33 -20 -88 0 -104 9 -112 130 -112 121 0 130
8 130 112 0 97 -13 108 -130 108 -77 0 -93 -3 -110 -20z m178 -92 l3 -48 -65
0 -66 0 0 50 0 51 63 -3 62 -3 3 -47z"/>
<path d="M727 882 c-13 -14 -17 -38 -17 -94 0 -102 7 -108 132 -108 115 0 121
5 126 99 3 56 1 70 -18 94 -21 26 -25 27 -114 27 -77 0 -96 -3 -109 -18z m173
-92 l0 -50 -65 0 -65 0 0 50 0 50 65 0 65 0 0 -50z"/>
<path d="M1117 882 c-24 -26 -24 -163 -1 -187 24 -23 68 -16 72 13 2 13 -3 25
-12 28 -12 4 -16 20 -16 55 l0 48 78 3 c75 3 77 4 77 28 0 25 -1 25 -91 28
-78 2 -93 0 -107 -16z"/>
<path d="M1455 882 c-169 -59 -282 -201 -293 -369 -25 -386 436 -597 709 -324
222 223 130 598 -170 692 -78 24 -179 24 -246 1z m270 -81 c75 -35 140 -99
174 -171 22 -46 26 -69 26 -145 0 -82 -3 -97 -33 -157 -38 -77 -92 -130 -171
-167 -47 -22 -70 -26 -146 -26 -78 0 -97 4 -147 28 -75 37 -135 98 -171 176
-26 55 -31 77 -30 140 2 265 261 432 498 322z"/>
<path d="M1647 502 l-132 -131 -62 60 c-68 64 -86 71 -104 38 -10 -19 -3 -29
70 -100 44 -44 86 -79 93 -79 7 0 81 68 163 150 126 126 148 153 139 167 -6 9
-16 19 -23 21 -7 2 -72 -55 -144 -126z"/>
<path d="M340 590 c-16 -16 -20 -33 -20 -88 0 -104 9 -112 130 -112 121 0 130
8 130 112 0 97 -13 108 -130 108 -77 0 -93 -3 -110 -20z m178 -92 l3 -48 -65
0 -66 0 0 50 0 51 63 -3 62 -3 3 -47z"/>
<path d="M727 592 c-13 -14 -17 -38 -17 -94 0 -101 8 -108 126 -108 49 0 94 4
100 8 39 26 48 142 13 186 -19 25 -25 26 -113 26 -77 0 -96 -3 -109 -18z m173
-92 l0 -50 -65 0 -65 0 0 50 0 50 65 0 65 0 0 -50z"/>
</g>
</svg>
