<?xml version="1.0" standalone="no"?>
<!DOCTYPE svg PUBLIC "-//W3C//DTD SVG 20010904//EN"
 "http://www.w3.org/TR/2001/REC-SVG-20010904/DTD/svg10.dtd">
<svg version="1.0" xmlns="http://www.w3.org/2000/svg"
 width="188.000000pt" height="188.000000pt" viewBox="0 0 188.000000 188.000000"
 preserveAspectRatio="xMidYMid meet">

<g transform="translate(0.000000,188.000000) scale(0.100000,-0.100000)"
fill="#000000" stroke="none">
<path d="M907 1863 c-8 -10 -30 -48 -47 -85 l-32 -66 -71 -11 c-107 -17 -122
-23 -125 -51 -2 -19 12 -39 61 -88 l63 -63 -14 -91 c-14 -90 -14 -92 7 -109
24 -20 23 -20 134 36 l57 29 68 -34 c100 -51 99 -51 123 -31 22 18 22 18 7
109 l-14 91 63 63 c90 89 85 118 -22 132 -117 16 -111 12 -145 84 -37 77 -56
102 -80 102 -9 0 -24 -8 -33 -17z m58 -115 c38 -86 47 -94 130 -107 l76 -13
-58 -52 -58 -53 13 -73 c7 -40 11 -75 8 -77 -2 -2 -33 11 -70 29 l-66 32 -66
-33 c-36 -18 -67 -31 -70 -29 -2 3 1 38 8 78 l13 73 -59 53 c-32 30 -55 54
-50 54 34 0 141 23 152 32 7 7 25 38 39 70 15 32 29 58 33 58 4 0 15 -19 25
-42z"/>
<path d="M412 1588 c-5 -7 -20 -33 -32 -58 -27 -54 -30 -56 -88 -64 -84 -11
-93 -41 -32 -101 l41 -40 -3 -74 c-4 -98 9 -108 85 -66 l54 29 51 -27 c59 -31
75 -33 92 -12 9 11 10 29 1 77 l-11 63 45 45 c64 65 59 92 -20 105 -69 12 -75
15 -102 68 -33 67 -57 83 -81 55z m47 -127 c20 -38 42 -51 90 -51 25 0 25 0
-8 -34 -32 -33 -34 -38 -28 -85 l6 -50 -36 21 c-36 22 -36 22 -106 -7 -17 -7
-18 -4 -12 37 6 41 4 48 -25 82 l-32 36 25 0 c47 0 75 17 87 54 6 20 13 36 16
36 2 0 12 -17 23 -39z"/>
<path d="M1422 1591 c-7 -4 -24 -31 -37 -59 -24 -51 -30 -55 -100 -67 -79 -13
-83 -36 -20 -104 l45 -48 -11 -61 c-9 -48 -8 -66 1 -77 17 -21 33 -19 93 11
l52 27 53 -29 c75 -41 88 -30 84 67 l-3 74 41 40 c63 61 53 86 -40 103 -30 6
-56 14 -57 19 -2 4 -16 30 -31 58 -27 50 -46 62 -70 46z m105 -178 l45 -8 -32
-33 c-29 -31 -31 -37 -25 -79 6 -42 5 -45 -12 -38 -70 29 -70 29 -106 7 l-36
-21 6 50 c6 47 4 52 -28 85 -33 34 -33 34 -8 34 49 0 70 13 91 53 l21 41 19
-41 c17 -36 24 -42 65 -50z"/>
<path d="M708 1166 c-19 -13 -78 -55 -130 -95 -52 -39 -102 -71 -110 -71 -9 0
-23 11 -32 25 -9 14 -33 29 -57 35 -23 6 -51 23 -63 37 -20 23 -35 27 -150 42
l-128 16 -19 -24 c-18 -22 -19 -45 -19 -392 0 -427 -6 -402 99 -414 79 -9 106
7 122 70 11 44 11 44 55 43 28 0 51 5 63 16 27 25 45 21 27 -6 -27 -39 -20
-86 18 -124 19 -19 43 -34 55 -34 14 0 21 -6 21 -19 0 -29 38 -70 73 -79 22
-5 33 -15 35 -29 5 -36 47 -72 91 -79 28 -4 42 -13 47 -26 7 -24 61 -58 92
-58 31 0 60 16 99 53 l32 30 31 -27 c43 -35 97 -35 139 0 17 14 31 32 31 40 0
8 10 14 23 14 31 0 85 35 99 65 6 14 20 25 30 25 28 0 76 27 88 49 5 11 10 32
10 48 0 21 8 32 31 45 18 11 37 34 47 58 20 48 49 59 86 35 18 -12 38 -16 65
-12 39 5 39 5 50 -39 16 -64 44 -79 123 -65 104 18 98 -6 98 422 0 461 17 426
-190 389 -126 -23 -157 -34 -165 -61 -4 -11 -20 -21 -41 -25 -20 -4 -44 -18
-58 -35 -14 -16 -32 -29 -42 -29 -9 0 -69 34 -133 77 -121 80 -153 92 -211 83
-23 -3 -71 5 -135 22 -122 34 -152 35 -197 4z m118 -47 c53 -14 56 -25 8 -34
-69 -13 -104 -38 -175 -128 -79 -100 -93 -128 -84 -174 7 -40 55 -89 95 -98
59 -13 90 3 173 91 111 116 105 117 276 -48 75 -73 169 -164 209 -203 57 -54
72 -75 70 -94 -4 -35 -31 -48 -62 -32 -49 27 -78 -16 -36 -54 34 -31 21 -85
-20 -85 -9 0 -25 9 -35 20 -20 22 -61 27 -68 8 -2 -7 3 -27 11 -45 28 -58 -21
-84 -79 -41 -28 21 -30 21 -46 5 -15 -14 -15 -21 -5 -37 23 -38 8 -80 -29 -80
-27 0 -71 47 -64 70 9 29 -23 87 -55 102 -21 9 -30 21 -34 49 -7 45 -55 89
-97 89 -21 0 -32 7 -43 28 -16 31 -53 52 -91 52 -15 0 -26 7 -30 20 -18 56
-110 79 -164 41 -28 -21 -81 -18 -81 4 0 12 41 242 61 343 10 50 12 52 43 52
25 0 60 21 160 95 70 52 132 95 137 95 6 0 30 -5 55 -11z m-686 -39 c135 -21
130 -19 130 -45 0 -37 -110 -639 -118 -647 -4 -3 -25 -3 -47 1 l-40 6 -3 348
c-1 191 1 347 5 347 5 0 37 -5 73 -10z m1680 -345 l0 -345 -27 -5 c-58 -12
-63 -13 -67 -7 -5 9 -146 642 -146 657 0 11 217 56 233 48 4 -2 7 -159 7 -348z
m-602 269 c120 -79 162 -100 187 -91 10 5 18 -13 31 -71 9 -42 29 -131 44
-197 15 -66 25 -123 21 -127 -3 -4 -17 -9 -31 -12 -22 -6 -52 19 -239 199
-118 113 -226 208 -239 212 -13 3 -42 3 -65 0 -37 -5 -52 -16 -118 -86 -70
-75 -88 -87 -129 -81 -24 3 -42 26 -42 53 -1 31 123 192 155 204 74 26 247 71
276 72 27 1 59 -15 149 -75z m-838 -24 c0 -11 -18 -120 -40 -241 -22 -122 -40
-225 -40 -230 0 -5 -14 -9 -31 -9 -24 0 -29 4 -25 18 3 9 21 109 41 222 19
113 38 217 41 233 4 20 11 27 30 27 17 0 24 -6 24 -20z m1200 -244 c43 -196
50 -240 39 -247 -23 -15 -38 -10 -44 14 -3 12 -25 114 -50 227 -25 113 -47
213 -49 223 -5 19 32 42 45 28 4 -3 30 -113 59 -245z m-1032 -248 c18 -18 15
-38 -14 -75 -34 -44 -68 -66 -93 -58 -38 12 -35 42 9 95 42 51 73 63 98 38z
m132 -87 c16 -31 13 -39 -41 -97 -52 -54 -83 -66 -107 -42 -21 21 -13 42 39
101 54 61 89 73 109 38z m124 -83 c14 -19 13 -24 -2 -50 -9 -16 -40 -52 -69
-79 -44 -41 -55 -48 -75 -40 -44 16 -34 50 35 124 34 37 70 67 79 67 9 0 24
-10 32 -22z m94 -142 c3 -21 -5 -37 -30 -63 -45 -47 -64 -56 -88 -43 -31 16
-24 51 19 98 32 35 46 43 68 40 22 -2 29 -9 31 -32z"/>
</g>
</svg>
