<?xml version="1.0" encoding="UTF-8" standalone="no"?>
<svg
   width="27"
   height="26"
   viewBox="0 0 27 26"
   fill="none"
   version="1.1"
   id="svg1"
   sodipodi:docname="facebook-strokke.svg"
   inkscape:version="1.3.2 (091e20e, 2023-11-25, custom)"
   xmlns:inkscape="http://www.inkscape.org/namespaces/inkscape"
   xmlns:sodipodi="http://sodipodi.sourceforge.net/DTD/sodipodi-0.dtd"
   xmlns="http://www.w3.org/2000/svg"
   xmlns:svg="http://www.w3.org/2000/svg">
  <defs
     id="defs1" />
  <sodipodi:namedview
     id="namedview1"
     pagecolor="#ffffff"
     bordercolor="#000000"
     borderopacity="0.25"
     inkscape:showpageshadow="2"
     inkscape:pageopacity="0.0"
     inkscape:pagecheckerboard="0"
     inkscape:deskcolor="#d1d1d1"
     inkscape:zoom="31.576923"
     inkscape:cx="13.490865"
     inkscape:cy="13"
     inkscape:window-width="1920"
     inkscape:window-height="1017"
     inkscape:window-x="1912"
     inkscape:window-y="-8"
     inkscape:window-maximized="1"
     inkscape:current-layer="svg1" />
  <path
     style="color:#000000;fill:#000000;-inkscape-stroke:none"
     d="M 4.5136719,0.02148438 C 3.0361737,0.04645635 1.9231311,0.81900441 1.3203125,1.7070312 0.71749387,2.5950581 0.52217371,3.5432985 0.5,4.2617187 v 0.013672 17.4550784 c 0,1.413189 0.695068,2.514099 1.5019531,3.177734 0.8068852,0.663636 1.6860005,0.966814 2.3671875,1.078125 L 4.4492187,26 h 8.6347653 v -9.380859 h -2.882812 v -2.558594 h 2.882812 V 9.9277344 c 0.155355,-1.3914608 0.73312,-2.1361423 1.41211,-2.6230469 0.682986,-0.4897707 1.530095,-0.6701972 1.972656,-0.6757813 h 3.410156 v 2.6074219 h -4.173828 v 4.8242189 h 3.984375 l -0.445312,2.558594 h -3.539063 l 5.21875,2 1.144531,-6.558594 h -4.363281 v -0.824219 h 4.173828 V 4.6289062 h -5.429687 -0.0059 c -0.865937,0.010926 -2.026519,0.2714632 -3.113281,1.0507813 -1.086761,0.7793181 -2.03375,2.1328932 -2.240234,4.0546875 l -0.0059,0.052734 V 12.060547 H 8.2011719 v 6.558594 H 11.083984 V 24 H 4.6621094 C 4.327546,23.940549 3.7180976,23.730605 3.2714844,23.363281 2.8154308,22.988193 2.5,22.536678 2.5,21.730469 V 4.3222656 C 2.5109563,3.9672869 2.6584721,3.2986649 2.9765625,2.8300781 3.2946529,2.3614913 3.6809786,2.0361524 4.5488281,2.0214844 c 2.2675585,-0.038316 12.8395829,-0.016456 17.9589839,0 0.216058,0.049346 0.674734,0.228556 1.035157,0.5800781 0.372638,0.363436 0.678064,0.863346 0.708984,1.7265625 0.07659,2.1382296 0.198106,12.460189 0.248047,17.363281 -0.01631,0.334058 -0.181312,0.98099 -0.564453,1.453125 C 23.55089,23.618535 23.003223,24 21.873047,24 h -4.167969 v -6.380859 l -1,1 -1,-2 v 1 V 26 h 6.167969 c 1.652421,0 2.894317,-0.707333 3.615234,-1.595703 0.720917,-0.88837 0.975245,-1.871878 1.009766,-2.628906 l 0.002,-0.02734 v -0.02734 C 26.45028,16.830677 26.332194,6.5505135 26.25,4.2558594 26.20142,2.8996281 25.631839,1.8452098 24.939453,1.1699219 24.247067,0.49463391 23.48651,0.16529271 22.863281,0.04101562 l -0.0957,-0.01953124 h -0.0957 c -5.069848,-0.01651505 -15.7548149,-0.04061087 -18.1582031,0 z"
     id="path1" />
</svg>
