<?xml version="1.0" encoding="UTF-8" standalone="no"?>
<svg
   width="40"
   height="40"
   viewBox="0 0 40 40"
   fill="none"
   version="1.1"
   id="svg1"
   sodipodi:docname="location-stroke.svg"
   inkscape:version="1.3.2 (091e20e, 2023-11-25, custom)"
   xmlns:inkscape="http://www.inkscape.org/namespaces/inkscape"
   xmlns:sodipodi="http://sodipodi.sourceforge.net/DTD/sodipodi-0.dtd"
   xmlns="http://www.w3.org/2000/svg"
   xmlns:svg="http://www.w3.org/2000/svg">
  <defs
     id="defs1" />
  <sodipodi:namedview
     id="namedview1"
     pagecolor="#ffffff"
     bordercolor="#000000"
     borderopacity="0.25"
     inkscape:showpageshadow="2"
     inkscape:pageopacity="0.0"
     inkscape:pagecheckerboard="0"
     inkscape:deskcolor="#d1d1d1"
     inkscape:zoom="20.525"
     inkscape:cx="19.975639"
     inkscape:cy="20"
     inkscape:window-width="1920"
     inkscape:window-height="1017"
     inkscape:window-x="1912"
     inkscape:window-y="-8"
     inkscape:window-maximized="1"
     inkscape:current-layer="svg1" />
  <path
     style="color:#000000;fill:#000000;-inkscape-stroke:none"
     d="M 20,1 C 13.430819,1 8.125,6.0566486 8.125,12.226563 c 0,1.344241 0.3872615,2.898953 1.046875,4.708984 0.653878,1.794132 1.557984,3.75369 2.587891,5.80664 0.98952,1.972482 2.083117,4.007636 3.169922,6.027344 l 0.130859,0.242188 c 1.126131,2.093014 2.238794,4.169056 3.189453,6.097656 0.763942,1.549867 3.002129,1.634094 3.824219,0.160156 2.210725,-3.963576 4.653958,-8.376843 6.55664,-12.492187 C 30.556541,18.612405 31.875,14.987966 31.875,12.226563 31.875,6.0566486 26.569181,1 20,1 Z m 0,2 c 5.550207,0 9.875,4.2039076 9.875,9.226563 0,2.071591 -1.181233,5.646284 -3.060547,9.710937 -1.857514,4.017648 -4.278258,8.400559 -6.486328,12.359375 0.01469,-0.02634 -0.206146,0.08407 -0.283203,-0.07227 -0.97274,-1.973395 -2.09579,-4.065775 -3.222656,-6.160156 l -0.13086,-0.242187 C 15.604613,25.802577 14.518353,23.782218 13.546875,21.845703 12.535784,19.830258 11.661702,17.926264 11.050781,16.25 10.434776,14.559634 10.125,13.164119 10.125,12.226563 10.125,7.2039076 14.449793,3 20,3 Z"
     id="path1" />
  <path
     style="color:#000000;fill:#000000;-inkscape-stroke:none"
     d="m 20,8 c -2.749576,0 -5,2.250424 -5,5 0,2.749576 2.250424,5 5,5 2.749576,0 5,-2.250424 5,-5 0,-2.749576 -2.250424,-5 -5,-5 z m 0,2 c 1.668697,0 3,1.331303 3,3 0,1.668697 -1.331303,3 -3,3 -1.668697,0 -3,-1.331303 -3,-3 0,-1.668697 1.331303,-3 3,-3 z"
     id="circle1" />
</svg>
